Fly_normalized_Motion_pl03
version=1
nRows=25
nColumns=43
inDegrees=yes
endheader
time		pelvis_tilt		pelvis_list		pelvis_rotation		pelvis_tx		pelvis_ty		pelvis_tz		hip_flexion_r		hip_adduction_r		hip_rotation_r		knee_angle_r		ankle_angle_r		subtalar_angle_r		mtp_angle_r		hip_flexion_l		hip_adduction_l		hip_rotation_l		knee_angle_l		ankle_angle_l		subtalar_angle_l		mtp_angle_l		lumbar_extension		lumbar_bending		lumbar_rotation		neck_flexion		neck_lateral_bending		neck_rotation		arm_flex_r		arm_add_r		arm_rot_r		elbow_flex_r		pro_sup_r		wrist_flex_r		wrist_dev_r		hand_finger_flex_r		arm_flex_l		arm_add_l		arm_rot_l		elbow_flex_l		pro_sup_l		wrist_flex_l		wrist_dev_l		hand_finger_flex_l		
2.615000		4.913379		-17.888670		90.737412		-0.025955		1.678584		1.351033		70.906311		-3.496636		1.639534		-121.576851		-8.778086		-2.174372		32.623268		51.100880		-13.523622		9.350027		-126.009514		4.804889		9.567185		20.667888		-31.440332		0.150631		3.291756		10.300054		8.888899		-0.625060		102.487109		-14.999126		27.154016		56.517975		104.798198		-0.427861		-8.697683		-25.869378		106.521084		-5.656582		19.710971		52.958171		116.971194		-16.626576		-11.908733		-12.778433		
2.619015		4.784084		-17.592701		90.595580		-0.026024		1.678764		1.343626		70.947711		-3.635482		1.119228		-120.856692		-8.674829		-3.021865		32.629095		50.702765		-13.345851		9.262689		-125.445492		2.945925		9.102506		20.835350		-31.370917		0.054720		3.383203		9.747978		8.833098		-0.641071		101.496846		-15.373606		27.027228		56.820299		104.939826		-0.453868		-8.834785		-25.976018		105.336979		-6.002614		19.506991		53.304798		117.273750		-16.673798		-11.807571		-12.973391		
2.623030		4.673932		-17.214131		90.446988		-0.025996		1.679204		1.335864		70.855360		-3.729158		0.675721		-120.072104		-8.709458		-4.238050		32.634127		50.322281		-13.191653		9.201528		-124.880861		0.834154		8.430534		20.864159		-31.389871		-0.066032		3.586797		8.841205		8.763175		-0.677649		100.191541		-15.942896		26.686436		57.453105		104.997667		-0.536061		-9.001197		-26.165315		103.829365		-6.374714		19.289797		54.094569		117.619808		-16.764796		-11.845184		-13.194581		
2.627045		4.622442		-16.975141		90.216243		-0.025687		1.679313		1.328426		70.969315		-3.675969		0.224327		-119.268857		-9.107734		-5.332733		32.641783		50.143910		-13.212332		9.006637		-124.240462		-0.509436		7.424997		20.962178		-31.293778		-0.173920		3.873057		8.233393		8.730952		-0.726622		98.905812		-16.314268		26.212843		57.923641		105.089020		-0.565465		-8.928193		-26.474249		102.450847		-6.662836		18.941780		54.608945		118.170526		-16.660939		-11.652005		-13.468481		
2.631061		4.505858		-16.675855		90.084301		-0.025703		1.679161		1.321409		71.119939		-3.783082		-0.177176		-118.513008		-9.231118		-5.741785		32.645360		50.009241		-13.080902		8.852239		-123.657779		-0.580319		7.177082		21.005482		-31.323610		-0.277987		4.012200		8.018219		8.664658		-0.764281		97.886685		-16.729153		26.023762		58.087919		105.090783		-0.555863		-8.874553		-26.609241		101.358586		-7.018207		18.875598		54.797212		118.403451		-16.597992		-11.627061		-13.562592		
2.635076		4.416983		-16.459811		89.815661		-0.025435		1.679233		1.313942		71.264569		-3.740150		-0.503645		-117.645874		-9.413092		-6.366483		32.655666		49.829739		-13.102873		8.507689		-122.908151		-0.050061		6.784373		21.146743		-31.264963		-0.427910		4.362648		7.396534		8.565716		-0.917225		96.325010		-17.164679		25.263841		58.869006		105.043465		-0.659715		-8.763156		-26.974454		99.767676		-7.398010		18.526544		55.604596		118.932226		-16.501459		-11.580870		-13.801017		
2.639091		4.320008		-16.179300		89.686209		-0.025327		1.678936		1.306972		71.405312		-3.807780		-0.839590		-116.845861		-9.414556		-6.472503		32.661487		49.818368		-12.997001		8.251023		-122.230120		0.648127		6.686626		21.265910		-31.314445		-0.536050		4.555003		7.199303		8.471229		-0.996821		95.131771		-17.647169		24.927785		59.150046		105.033173		-0.738046		-8.720357		-27.134341		98.537415		-7.818412		18.515860		55.916839		119.204333		-16.422449		-11.587552		-13.879521		
2.643106		4.258328		-15.953469		89.545276		-0.025278		1.678703		1.300139		71.585694		-3.838480		-1.151895		-115.974076		-9.331528		-6.471471		32.667823		49.874699		-12.952254		7.944987		-121.415297		1.434208		6.581494		21.410049		-31.374882		-0.610158		4.751789		7.012055		8.382811		-1.100778		93.935147		-18.084646		24.535736		59.465373		105.030074		-0.874406		-8.694374		-27.305996		97.333920		-8.256696		18.468366		56.206186		119.476838		-16.355555		-11.560469		-13.957270		
2.647121		4.207906		-15.917675		89.218437		-0.024636		1.678069		1.292689		71.916994		-3.660312		-1.478405		-115.077273		-8.928596		-5.998127		32.686986		49.910803		-13.158228		7.454165		-120.533402		2.962228		6.265996		21.842648		-31.148367		-0.795515		5.196168		6.511515		8.281871		-1.395146		92.018830		-18.537216		23.491713		60.438978		105.152603		-1.314447		-8.647313		-27.744273		95.571205		-8.747826		18.186545		57.136058		120.215510		-16.173009		-11.346598		-14.163436		
2.651136		4.148601		-15.700080		89.145475		-0.024367		1.677419		1.285923		72.068501		-3.678154		-1.768340		-114.194392		-8.688375		-5.683164		32.695872		50.092453		-13.181899		7.196690		-119.637551		3.229303		6.015177		22.010038		-31.189567		-0.870456		5.332020		6.386733		8.215377		-1.492953		90.785109		-18.986721		23.195665		60.622155		105.252090		-1.428738		-8.590737		-27.894221		94.377842		-9.223791		18.210636		57.287939		120.567853		-16.001588		-11.209392		-14.216335		
2.655152		4.117160		-15.490184		89.107738		-0.024081		1.676664		1.279108		72.193875		-3.683474		-2.069185		-113.276604		-8.343221		-5.228000		32.705439		50.274062		-13.261119		6.954969		-118.654686		3.329671		5.545688		22.165831		-31.230694		-0.898559		5.458549		6.246005		8.138534		-1.603484		89.472486		-19.415514		22.819651		60.841349		105.350898		-1.551242		-8.531969		-28.042187		93.122241		-9.758504		18.219372		57.474860		120.936251		-15.811447		-11.043449		-14.267737		
2.659167		4.180507		-15.409696		89.015364		-0.023885		1.675499		1.271599		72.412939		-3.551152		-2.481702		-112.332316		-7.323324		-3.675649		32.737772		50.591390		-13.519236		6.548171		-117.716674		2.838364		3.516037		22.555661		-31.065745		-0.867308		5.680202		5.758611		8.024225		-1.859143		87.492493		-19.701730		21.593384		61.631731		105.741397		-1.639639		-8.149900		-28.339622		91.328781		-10.395695		17.872934		58.433835		122.047590		-15.180237		-10.343258		-14.484422		
2.663182		4.203982		-15.110816		89.113272		-0.023943		1.674675		1.264475		72.349486		-3.606574		-2.784736		-111.347155		-6.781737		-2.972082		32.752670		50.768840		-13.611495		6.325836		-116.657406		2.469468		2.338449		22.607028		-31.231926		-0.757489		5.681691		5.508571		7.877195		-1.967273		85.984399		-20.030863		20.947290		61.987546		105.840396		-1.542323		-7.943842		-28.408640		89.927727		-11.136467		17.873103		58.879441		122.535153		-14.830206		-10.139837		-14.585693		
2.667197		4.303631		-14.788452		89.231662		-0.024019		1.673739		1.257239		72.217340		-3.636718		-3.181176		-110.328567		-6.211162		-2.076489		32.761499		50.933376		-13.788385		6.097683		-115.574628		2.255387		0.941096		22.497895		-31.431914		-0.570155		5.710047		5.181633		7.723382		-2.098799		84.389731		-20.323237		20.160485		62.377149		105.840740		-1.475535		-7.719660		-28.445358		88.458491		-11.965039		17.902621		59.393482		122.858300		-14.563295		-9.969405		-14.640144		
2.671212		4.378889		-14.501305		89.369017		-0.024035		1.672473		1.250200		72.133222		-3.704217		-3.560252		-109.315799		-5.747851		-1.291011		32.766785		51.202336		-13.957216		5.811387		-114.496862		2.206153		-0.323172		22.336889		-31.578790		-0.399218		5.701592		5.091048		7.584304		-2.197006		82.919042		-20.568926		19.543602		62.469971		105.882621		-1.360716		-7.432348		-28.453744		87.092224		-12.687280		17.895725		59.600582		123.097189		-14.303925		-9.689880		-14.670655		
2.675227		4.451536		-14.234595		89.498265		-0.024136		1.671065		1.243233		72.049545		-3.786347		-3.915316		-108.267559		-5.350951		-0.591786		32.770541		51.518229		-14.075317		5.485355		-113.408976		2.198987		-1.449491		22.166833		-31.714508		-0.226025		5.686880		5.066701		7.459198		-2.280661		81.487081		-20.828560		19.027681		62.458051		105.948302		-1.232571		-7.149034		-28.454864		85.759252		-13.383415		17.897336		59.694263		123.306784		-14.049035		-9.393425		-14.689915		
2.679242		4.523505		-14.342233		89.740317		-0.024785		1.668904		1.236195		72.342635		-4.091881		-4.396879		-107.214442		-4.765061		0.913675		32.771615		52.288824		-13.992877		5.071566		-112.302782		1.666792		-4.349799		21.184884		-31.440394		0.082037		5.485917		4.875044		7.146077		-2.337099		79.718730		-20.835578		17.781957		62.807272		107.154700		-0.258009		-6.409145		-28.413079		83.888112		-14.276471		17.366530		60.746916		124.198046		-12.960450		-7.982453		-14.957165		
2.683258		4.562982		-14.251457		89.925316		-0.025170		1.667038		1.229319		72.369787		-4.311409		-4.737325		-106.083139		-4.573682		1.620205		32.771045		52.782369		-13.988313		4.683719		-111.118562		1.646724		-5.602324		20.704519		-31.417520		0.289381		5.380511		4.769877		6.997638		-2.408744		78.152193		-21.059510		17.064225		62.873902		107.751199		0.117788		-6.132774		-28.468498		82.364122		-15.116975		17.223830		61.154290		124.657056		-12.404069		-7.397709		-15.112841		
2.687273		4.620980		-14.046770		90.055171		-0.025209		1.665286		1.222331		72.198674		-4.418832		-5.045781		-104.883431		-4.645488		1.935439		32.769094		53.062951		-14.072265		4.362628		-109.869954		1.985210		-5.874341		20.574259		-31.515245		0.437196		5.358119		4.678828		6.950142		-2.511149		76.575071		-21.388811		16.611717		62.826996		107.925532		0.050333		-6.188246		-28.598504		80.973617		-15.970714		17.342610		61.223060		124.809500		-12.227778		-7.364892		-15.184606		
2.691288		4.826876		-14.099123		90.199377		-0.024991		1.662958		1.215223		72.253853		-4.404450		-5.531851		-103.625730		-4.612306		2.587469		32.764015		53.644127		-14.330338		4.106395		-108.584102		2.062227		-6.591151		20.270208		-31.312060		0.708089		5.354448		4.646785		6.807889		-2.606910		74.736384		-21.356495		15.565329		62.804275		108.636931		0.122424		-6.174898		-28.756487		79.305889		-16.920410		17.246774		61.669151		125.075935		-11.856098		-6.844402		-15.347107		
2.695303		5.000982		-14.174225		90.390838		-0.025083		1.660333		1.208136		72.308649		-4.485111		-5.970411		-102.357314		-4.661278		3.157980		32.758016		54.272932		-14.480351		3.853325		-107.330927		1.957022		-7.240687		19.886864		-31.068411		1.030112		5.292627		4.565526		6.660689		-2.661620		72.926294		-21.358989		14.581893		62.772900		109.615221		0.423707		-6.117128		-28.871545		77.595459		-17.924891		17.133146		62.147285		125.415219		-11.354620		-6.163146		-15.559815		
2.699318		5.152303		-14.405452		90.760804		-0.025411		1.657413		1.201035		72.448105		-4.745136		-6.426875		-101.043441		-4.905057		3.569138		32.748221		55.119686		-14.391754		3.746076		-106.022942		1.426694		-7.880840		19.142743		-30.671933		1.436636		4.951575		4.358440		6.404259		-2.621025		71.071060		-21.216628		13.326358		62.826557		111.658711		1.454934		-5.918645		-28.933897		75.683268		-19.138509		16.859759		63.103962		126.083018		-10.360706		-4.871524		-16.057869		
2.703333		5.130261		-14.196534		90.953974		-0.025733		1.655154		1.193937		72.109026		-4.952649		-6.652280		-99.689138		-5.137053		3.747548		32.747160		55.279576		-14.347621		3.363372		-104.552797		1.311254		-7.769828		19.052474		-30.754749		1.572122		4.857267		4.169474		6.383710		-2.666018		69.562167		-21.804930		13.284730		62.617182		111.831253		1.615572		-5.851460		-28.947518		74.310038		-19.992460		17.059237		62.968583		126.191134		-10.171169		-4.775830		-16.090676		
2.707348		5.138100		-13.994786		91.119922		-0.026139		1.652644		1.186591		71.713144		-5.125629		-6.913879		-98.316842		-5.369974		3.975924		32.745737		55.421324		-14.269103		3.038004		-103.121724		1.137064		-7.649634		18.932375		-30.794808		1.731665		4.767688		3.922179		6.359107		-2.743145		67.887139		-22.312697		13.046053		62.499807		112.053734		1.767935		-5.767507		-28.991035		72.775719		-20.942397		17.245792		62.998532		126.335975		-9.958898		-4.612936		-16.155377		
2.711364		5.230279		-13.878160		91.335211		-0.026379		1.649959		1.179024		71.306026		-5.251765		-7.305276		-96.879547		-5.559147		4.265111		32.741410		55.620285		-14.228915		2.797511		-101.619282		0.812947		-7.347676		18.709767		-30.752667		1.971025		4.654844		3.556852		6.314423		-2.875645		65.915213		-22.590775		12.254769		62.582920		112.568780		2.018325		-5.550803		-29.127931		70.993451		-22.079476		17.315691		63.508677		126.620423		-9.612344		-4.093314		-16.347883		
